<svg width="40" height="40" viewBox="0 0 40 40" fill="none" xmlns="http://www.w3.org/2000/svg">
<rect width="40" height="40" rx="16" fill="#EA2A33"/>
<path d="M11.9708 17.4504L14.4083 18.4816C14.7 17.8983 15.0021 17.3358 15.3146 16.7941C15.6271 16.2524 15.9708 15.7108 16.3458 15.1691L14.5958 14.8254L11.9708 17.4504ZM16.4083 20.0441L19.9708 23.5754C20.8458 23.242 21.7833 22.7316 22.7833 22.0441C23.7833 21.3566 24.7208 20.5754 25.5958 19.7004C27.0542 18.242 28.1948 16.6222 29.0177 14.841C29.8406 13.0597 30.2 11.4191 30.0958 9.9191C28.5958 9.81494 26.95 10.1743 25.1583 10.9972C23.3667 11.8201 21.7417 12.9608 20.2833 14.4191C19.4083 15.2941 18.6271 16.2316 17.9396 17.2316C17.2521 18.2316 16.7417 19.1691 16.4083 20.0441ZM21.9708 18.0129C21.4917 17.5337 21.2521 16.9451 21.2521 16.2472C21.2521 15.5493 21.4917 14.9608 21.9708 14.4816C22.45 14.0024 23.0437 13.7629 23.7521 13.7629C24.4604 13.7629 25.0542 14.0024 25.5333 14.4816C26.0125 14.9608 26.2521 15.5493 26.2521 16.2472C26.2521 16.9451 26.0125 17.5337 25.5333 18.0129C25.0542 18.492 24.4604 18.7316 23.7521 18.7316C23.0437 18.7316 22.45 18.492 21.9708 18.0129ZM22.5646 28.0441L25.1896 25.4191L24.8458 23.6691C24.3042 24.0441 23.7625 24.3826 23.2208 24.6847C22.6792 24.9868 22.1167 25.2837 21.5333 25.5754L22.5646 28.0441ZM32.3458 7.63785C32.7417 10.1587 32.4969 12.6118 31.6115 14.9972C30.726 17.3826 29.2 19.6587 27.0333 21.8254L27.6583 24.9191C27.7417 25.3358 27.7208 25.742 27.5958 26.1379C27.4708 26.5337 27.2625 26.8774 26.9708 27.1691L21.7208 32.4191L19.0958 26.2629L13.7521 20.9191L7.59583 18.2941L12.8146 13.0441C13.1062 12.7524 13.4552 12.5441 13.8615 12.4191C14.2677 12.2941 14.6792 12.2733 15.0958 12.3566L18.1896 12.9816C20.3562 10.8149 22.6271 9.28369 25.0021 8.38785C27.3771 7.49202 29.825 7.24202 32.3458 7.63785ZM9.81458 24.8879C10.5437 24.1587 11.4344 23.7889 12.4865 23.7785C13.5385 23.7681 14.4292 24.1274 15.1583 24.8566C15.8875 25.5858 16.2469 26.4764 16.2365 27.5285C16.226 28.5806 15.8562 29.4712 15.1271 30.2004C14.6062 30.7212 13.7365 31.1691 12.5177 31.5441C11.299 31.9191 9.61666 32.2524 7.47083 32.5441C7.76249 30.3983 8.09583 28.716 8.47083 27.4972C8.84583 26.2785 9.29374 25.4087 9.81458 24.8879ZM11.5958 26.6379C11.3875 26.8462 11.1792 27.2264 10.9708 27.7785C10.7625 28.3306 10.6167 28.8879 10.5333 29.4504C11.0958 29.367 11.6531 29.2264 12.2052 29.0285C12.7573 28.8306 13.1375 28.6274 13.3458 28.4191C13.5958 28.1691 13.7312 27.867 13.7521 27.5129C13.7729 27.1587 13.6583 26.8566 13.4083 26.6066C13.1583 26.3566 12.8562 26.2368 12.5021 26.2472C12.1479 26.2576 11.8458 26.3879 11.5958 26.6379Z" fill="white"/>
</svg>
